<svg xmlns="http://www.w3.org/2000/svg" width="18" height="18" viewBox="0 0 18 18"><path fill="#FFF" d="M16.241.5H1.754C1.062.5.5 1.049.5 1.725v14.549c0 .678.562 1.226 1.254 1.226h14.487c.693 0 1.259-.548 1.259-1.226V1.725C17.5 1.049 16.935.5 16.241.5zM5.543 14.987H3.019V6.874h2.524v8.113zM4.281 5.764a1.46 1.46 0 1 1 0-2.924 1.462 1.462 0 1 1 0 2.924zm10.703 9.223h-2.519v-3.945c0-.941-.019-2.151-1.311-2.151-1.312 0-1.512 1.024-1.512 2.082v4.015H7.125V6.874h2.416v1.108h.035c.337-.638 1.159-1.311 2.387-1.311 2.551 0 3.021 1.681 3.021 3.866v4.45z"/></svg>