<svg xmlns="http://www.w3.org/2000/svg" width="18" height="14" viewBox="0 0 18 14"><path d="M5.846 13.907c6.416 0 9.922-5.315 9.922-9.923 0-.151-.002-.303-.01-.452A7.129 7.129 0 0 0 17.5 1.728a7.012 7.012 0 0 1-2.004.548 3.5 3.5 0 0 0 1.533-1.93 6.997 6.997 0 0 1-2.214.847 3.488 3.488 0 0 0-5.943 3.179A9.896 9.896 0 0 1 1.683.73a3.468 3.468 0 0 0-.473 1.753c0 1.211.615 2.277 1.553 2.902a3.458 3.458 0 0 1-1.58-.435v.043c0 1.689 1.201 3.1 2.798 3.421a3.54 3.54 0 0 1-1.574.059 3.49 3.49 0 0 0 3.257 2.423 6.995 6.995 0 0 1-5.163 1.443 9.845 9.845 0 0 0 5.345 1.568" fill="#FFF"/></svg>