<svg xmlns="http://www.w3.org/2000/svg" width="18" height="18" viewBox="0 0 18 18"><g fill="#FFF"><path d="M.5.5v17h17V.5H.5zm15.966 12.275a1.957 1.957 0 0 1-1.378 1.387C13.873 14.49 9 14.49 9 14.49s-4.873 0-6.088-.328a1.958 1.958 0 0 1-1.378-1.387C1.208 11.552 1.208 9 1.208 9s0-2.552.326-3.775a1.958 1.958 0 0 1 1.378-1.387C4.127 3.51 9 3.51 9 3.51s4.873 0 6.088.328c.671.18 1.199.711 1.378 1.386.326 1.224.326 3.776.326 3.776s0 2.552-.326 3.775z"/><path d="M7.406 11.317L11.479 9 7.406 6.683z"/></g></svg>